<?xml version="1.0" encoding="UTF-8"?>
<svg version="1.1" xmlns="http://www.w3.org/2000/svg" width="512" height="512">
<path d="M0 0 C1.01790619 0.00215515 2.03581238 0.0043103 3.08456421 0.00653076 C17.69363523 0.05620146 32.02575853 0.30709809 46.375 3.3125 C47.34985352 3.51117676 48.32470703 3.70985352 49.32910156 3.91455078 C88.38660539 12.08468046 124.82400319 27.71035417 156.375 52.3125 C157.25929688 52.98539063 158.14359375 53.65828125 159.0546875 54.3515625 C174.64162389 66.45260257 189.26666068 80.75087979 201.375 96.3125 C202.15101563 97.2715625 202.92703125 98.230625 203.7265625 99.21875 C238.25804162 142.62975232 256.81395322 197.76040062 256.69067383 253.03979492 C256.6875221 255.97938487 256.71104926 258.9179558 256.73632812 261.85742188 C256.78098737 275.23056192 255.57551542 288.12666711 253.375 301.3125 C253.09281616 303.01805054 253.09281616 303.01805054 252.80493164 304.75805664 C245.77946967 343.86954746 228.79665906 381.05202178 204.375 412.3125 C203.61574219 413.28445313 202.85648437 414.25640625 202.07421875 415.2578125 C189.73986402 430.63741644 175.93895499 445.19015196 160.375 457.3125 C159.43914062 458.07691406 158.50328125 458.84132813 157.5390625 459.62890625 C125.58628299 485.2157721 86.41988322 501.72551276 46.375 509.3125 C45.56562988 509.47621094 44.75625977 509.63992188 43.92236328 509.80859375 C13.88110013 515.67977137 -20.7615176 514.58512909 -50.625 508.3125 C-52.14794678 507.99901611 -52.14794678 507.99901611 -53.70166016 507.67919922 C-90.84546555 499.78695344 -125.70945445 483.68345578 -155.625 460.3125 C-156.59695312 459.55324219 -157.56890625 458.79398437 -158.5703125 458.01171875 C-173.94991644 445.67736402 -188.50265196 431.87645499 -200.625 416.3125 C-201.77162109 414.90871094 -201.77162109 414.90871094 -202.94140625 413.4765625 C-228.5282721 381.52378299 -245.03801276 342.35738322 -252.625 302.3125 C-252.78871094 301.50312988 -252.95242187 300.69375977 -253.12109375 299.85986328 C-258.59069558 271.87335724 -258.46977511 238.21828161 -252.625 210.3125 C-252.42632324 209.33764648 -252.22764648 208.36279297 -252.02294922 207.35839844 C-241.7272891 158.1397446 -219.29081567 114.71000304 -184.625 78.3125 C-184.05475098 77.71356934 -183.48450195 77.11463867 -182.89697266 76.49755859 C-174.89671874 68.15723469 -166.68033043 60.51197864 -157.39306641 53.62744141 C-155.58557641 52.28318 -153.79826388 50.91490873 -152.01171875 49.54296875 C-143.60452986 43.15390681 -134.86138957 37.61168285 -125.65234375 32.45166016 C-123.78933792 31.40484113 -121.94116361 30.33571119 -120.09375 29.26171875 C-83.4933446 8.69459905 -41.63834482 -0.15855121 0 0 Z M-54.625 109.3125 C-67.3048181 124.25355232 -71.76430163 140.93861731 -71.78613281 160.15625 C-71.79109772 161.21436386 -71.79606262 162.27247772 -71.80117798 163.36265564 C-71.81572158 166.84594385 -71.82258974 170.32918647 -71.828125 173.8125 C-71.83095238 175.00980743 -71.83377975 176.20711487 -71.83669281 177.44070435 C-71.85165648 183.78094705 -71.86090287 190.12116718 -71.86523438 196.46142578 C-71.87070462 202.97273822 -71.89471043 209.48384004 -71.92320633 215.99508667 C-71.94194195 221.03465352 -71.94704417 226.07417082 -71.94857025 231.11376953 C-71.95157435 233.51205594 -71.95952585 235.91034195 -71.97275543 238.30859375 C-72.37926978 262.33346666 -72.37926978 262.33346666 -64.8125 284.8125 C-64.45921631 285.47773682 -64.10593262 286.14297363 -63.74194336 286.82836914 C-61.11476188 291.67392719 -58.31607848 296.19829789 -54.625 300.3125 C-53.99335938 301.03566406 -53.36171875 301.75882813 -52.7109375 302.50390625 C-41.73130242 314.30202322 -26.0149695 322.55852168 -9.76342773 323.47363281 C13.10327946 323.79859965 33.14197972 322.14921411 50.34863281 305.51269531 C51.71341446 304.13470914 53.04496196 302.72405008 54.375 301.3125 C55.12394531 300.52101563 55.87289062 299.72953125 56.64453125 298.9140625 C72.65293175 280.48756709 72.84192483 258.11124235 72.7734375 234.99609375 C72.77546349 232.56624769 72.77837928 230.13640223 72.78213501 227.70655823 C72.78653277 222.63935498 72.78020931 217.57231148 72.76611328 212.50512695 C72.74901403 206.04771695 72.75888395 199.59068093 72.77683067 193.13328457 C72.78772979 188.12377665 72.78419432 183.11435575 72.7764473 178.10484505 C72.77446268 175.72528093 72.77684259 173.34570862 72.78388596 170.9661541 C72.84025946 146.57788169 70.28976778 124.59510899 52.625 106.0625 C36.99932121 91.14600481 18.49671284 85.76030285 -2.60595703 85.89526367 C-23.33673388 86.40811339 -40.53717814 94.1680915 -54.625 109.3125 Z M-123.625 243.3125 C-128.87119424 250.28670609 -127.20065151 260.31484341 -126.12109375 268.578125 C-121.85319278 296.76839163 -109.32743971 320.86004063 -89.625 341.3125 C-88.91988281 342.09238281 -88.21476562 342.87226563 -87.48828125 343.67578125 C-68.7509484 363.76934009 -39.57512089 375.93961675 -12.625 378.3125 C-12.64071045 379.40191895 -12.6564209 380.49133789 -12.67260742 381.61376953 C-12.72708978 385.67277575 -12.76141639 389.7317499 -12.78979492 393.79101562 C-12.80483995 395.54465173 -12.82528104 397.29825047 -12.85131836 399.05175781 C-12.88789121 401.57887009 -12.9047692 404.10548296 -12.91796875 406.6328125 C-12.93345261 407.41117462 -12.94893646 408.18953674 -12.96488953 408.9914856 C-12.96670021 414.90726875 -11.43188364 418.74116559 -8 423.625 C-4.43695002 426.15664078 -0.94484166 426.50604129 3.375 426.3125 C7.56057804 424.63826878 9.81444561 421.97043485 12.375 418.3125 C13.64885127 414.4909462 13.49853188 410.9056553 13.47265625 406.92578125 C13.4712413 406.10877243 13.46982635 405.29176361 13.46836853 404.44999695 C13.46277294 401.84162732 13.45022129 399.23334366 13.4375 396.625 C13.43248443 394.85612103 13.42792162 393.08724072 13.42382812 391.31835938 C13.41280496 386.98303981 13.39554338 382.64778448 13.375 378.3125 C14.3657251 378.19350342 15.3564502 378.07450684 16.37719727 377.9519043 C49.94686585 373.79045855 79.92879391 356.38591319 101.140625 329.96484375 C117.1759089 308.93572313 127.30843509 282.80981456 127.6875 256.25 C127.71650391 255.56873047 127.74550781 254.88746094 127.77539062 254.18554688 C127.83943489 249.05707917 126.5753121 246.25994378 123.375 242.3125 C120.40393058 239.90352479 118.7004654 239.34737129 114.875 238.9375 C110.10496362 239.44857533 107.82724345 241.00934619 104.3203125 244.15625 C101.32511909 249.01592124 101.38516199 254.01669053 100.9375 259.625 C98.19188935 287.34859814 86.33582625 312.26140938 64.6875 330.4375 C42.05137147 347.790699 15.02236877 355.18052196 -13.28417969 352.01513672 C-25.22329229 350.35828938 -35.93334312 346.81708604 -46.625 341.3125 C-48.20861328 340.51005859 -48.20861328 340.51005859 -49.82421875 339.69140625 C-72.2003496 327.4942212 -88.56239622 306.42542785 -96.27734375 282.27001953 C-98.22294458 275.60506505 -99.54557895 268.96329392 -100.09765625 262.0390625 C-100.16879639 261.14864258 -100.23993652 260.25822266 -100.31323242 259.34082031 C-100.43432016 257.62058299 -100.5286068 255.89816702 -100.59106445 254.17480469 C-100.93813462 248.65980926 -102.30020494 245.67594698 -106.05908203 241.61181641 C-111.75015212 236.88966564 -118.52906586 239.02728266 -123.625 243.3125 Z " fill="#28CEFE" transform="translate(255.625,-0.3125)"/>
<path d="M0 0 C1.09828125 -0.01546875 2.1965625 -0.0309375 3.328125 -0.046875 C15.85537026 0.01249583 25.68873761 4.13000052 35 12.5 C43.77351797 22.16877491 46.61783365 33.63345783 46.51757812 46.41210938 C46.5245874 47.53575394 46.53159668 48.6593985 46.53881836 49.8170929 C46.55627356 53.49290448 46.54481939 57.16793201 46.53125 60.84375 C46.53394848 63.42102199 46.53783385 65.99829299 46.54284668 68.57556152 C46.54872489 73.96177879 46.54062078 79.34770708 46.52148438 84.73388672 C46.49972155 90.9302283 46.50677524 97.12604312 46.52879 103.32237196 C46.54924229 109.32280105 46.54693406 115.32297585 46.53526306 121.32344055 C46.53260826 123.8589943 46.53582126 126.39456163 46.54518127 128.93009949 C46.55542101 132.48305083 46.53974092 136.03501237 46.51757812 139.58789062 C46.52567505 140.61993118 46.53377197 141.65197174 46.54211426 142.71528625 C46.39674286 155.39238636 42.05755937 166.55101847 32.96875 175.5 C21.05270229 185.51638793 7.08506836 187.5262702 -8 186.5 C-19.36177426 184.83953357 -29.18077086 179.9790797 -37 171.5 C-44.27072444 161.72893593 -46.45603086 151.81438921 -46.40405273 139.81494141 C-46.41091599 138.6915889 -46.41777924 137.56823639 -46.42485046 136.4108429 C-46.44304256 132.72428485 -46.43929141 129.03815549 -46.43359375 125.3515625 C-46.43815934 122.77143212 -46.44346604 120.19130295 -46.44947815 117.61117554 C-46.45839454 112.21305807 -46.4562394 106.81510299 -46.44604492 101.41699219 C-46.43457328 95.20594012 -46.44863418 88.99532036 -46.4754414 82.78432524 C-46.50039534 76.77430874 -46.50275499 70.7645122 -46.49632454 64.75443649 C-46.49617183 62.21329403 -46.50217437 59.67214305 -46.51461601 57.13103104 C-46.52960289 53.56831576 -46.51879114 50.00653502 -46.50170898 46.44384766 C-46.51137695 45.40866501 -46.52104492 44.37348236 -46.53100586 43.30693054 C-46.40820745 30.98854628 -42.30792942 20.59711097 -34 11.5 C-24.02987649 2.60459958 -13.12003806 -0.18478927 0 0 Z " fill="#20D5FE" transform="translate(256,111.5)"/>
</svg>
